<svg xmlns:dc="http://purl.org/dc/elements/1.1/" xmlns:cc="http://creativecommons.org/ns#" xmlns:rdf="http://www.w3.org/1999/02/22-rdf-syntax-ns#" xmlns:svg="http://www.w3.org/2000/svg" xmlns="http://www.w3.org/2000/svg" xmlns:sodipodi="http://sodipodi.sourceforge.net/DTD/sodipodi-0.dtd" xmlns:inkscape="http://www.inkscape.org/namespaces/inkscape" aria-hidden="true" focusable="false" data-prefix="far" data-icon="trash-alt" role="img" viewBox="0 0 512 512" class="svg-inline--fa fa-trash-alt fa-w-14 fa-9x" version="1.1" id="svg4" sodipodi:docname="trash-empty-symbolic.svg" width="512" height="512" inkscape:version="0.92.4 (5da689c313, 2019-01-14)">
  <metadata id="metadata10" color="#53b7ec" fill="#53b7ec">
    <rdf:RDF>
      <cc:Work rdf:about="">
        <dc:format>image/svg+xml</dc:format>
        <dc:type rdf:resource="http://purl.org/dc/dcmitype/StillImage"/>
        <dc:title/>
      </cc:Work>
    </rdf:RDF>
  </metadata>
  <defs id="defs8" color="#53b7ec" fill="#53b7ec"/>
  <sodipodi:namedview pagecolor="#ffffff" bordercolor="#666666" borderopacity="1" objecttolerance="10" gridtolerance="10" guidetolerance="10" inkscape:pageopacity="0" inkscape:pageshadow="2" inkscape:window-width="1920" inkscape:window-height="1051" id="namedview6" showgrid="false" inkscape:zoom="0.4609375" inkscape:cx="224" inkscape:cy="256" inkscape:window-x="0" inkscape:window-y="0" inkscape:window-maximized="1" inkscape:current-layer="svg4" color="#53b7ec" fill="#53b7ec"/>
  <path d="m 300,416 h 24 a 12,12 0 0 0 12,-12 V 188 a 12,12 0 0 0 -12,-12 h -24 a 12,12 0 0 0 -12,12 v 216 a 12,12 0 0 0 12,12 z M 464,80 h -82.41 l -34,-56.7 A 48,48 0 0 0 306.41,0 H 205.59 A 48,48 0 0 0 164.43,23.3 L 130.41,80 H 48 A 16,16 0 0 0 32,96 v 16 a 16,16 0 0 0 16,16 h 16 v 336 a 48,48 0 0 0 48,48 h 288 a 48,48 0 0 0 48,-48 V 128 h 16 a 16,16 0 0 0 16,-16 V 96 A 16,16 0 0 0 464,80 Z M 203.84,50.91 A 6,6 0 0 1 209,48 h 94 a 6,6 0 0 1 5.15,2.91 L 325.61,80 H 186.39 Z M 400,464 H 112 V 128 H 400 Z M 188,416 h 24 a 12,12 0 0 0 12,-12 V 188 a 12,12 0 0 0 -12,-12 h -24 a 12,12 0 0 0 -12,12 v 216 a 12,12 0 0 0 12,12 z" class="" style="color:#53b7ec;fill:#53b7ec" id="path2" inkscape:connector-curvature="0"/>
</svg>