<?xml version="1.0" encoding="UTF-8" standalone="no"?>
<svg
   xmlns:dc="http://purl.org/dc/elements/1.1/"
   xmlns:cc="http://creativecommons.org/ns#"
   xmlns:rdf="http://www.w3.org/1999/02/22-rdf-syntax-ns#"
   xmlns:svg="http://www.w3.org/2000/svg"
   xmlns="http://www.w3.org/2000/svg"
   xmlns:sodipodi="http://sodipodi.sourceforge.net/DTD/sodipodi-0.dtd"
   xmlns:inkscape="http://www.inkscape.org/namespaces/inkscape"
   inkscape:version="1.0alpha (9dee831, 2019-01-15)"
   sodipodi:docname="applications-other-symbolic.svg"
   id="svg4"
   version="1.1"
   class="svg-inline--fa fa-ellipsis-h fa-w-16 fa-9x"
   viewBox="0 0 512 512"
   role="img"
   data-icon="ellipsis-h"
   data-prefix="fas"
   focusable="false"
   aria-hidden="true">
  <metadata
     id="metadata10">
    <rdf:RDF>
      <cc:Work
         rdf:about="">
        <dc:format>image/svg+xml</dc:format>
        <dc:type
           rdf:resource="http://purl.org/dc/dcmitype/StillImage" />
      </cc:Work>
    </rdf:RDF>
  </metadata>
  <defs
     id="defs8" />
  <sodipodi:namedview
     inkscape:current-layer="svg4"
     inkscape:window-maximized="0"
     inkscape:window-y="0"
     inkscape:window-x="0"
     inkscape:cy="256"
     inkscape:cx="256"
     inkscape:zoom="1.9003906"
     showgrid="false"
     id="namedview6"
     inkscape:window-height="1522"
     inkscape:window-width="1758"
     inkscape:pageshadow="2"
     inkscape:pageopacity="0"
     guidetolerance="10"
     gridtolerance="10"
     objecttolerance="10"
     borderopacity="1"
     inkscape:document-rotation="0"
     bordercolor="#666666"
     pagecolor="#ffffff" />
  <g
     id="applications-other"
     transform="matrix(15.970103,0,0,15.970073,-6718.8818,-8253.2391)">
    <rect
       transform="matrix(0.99999706,0,0,0.99999899,420.71433,524.79072)"
       y="-7.9999948"
       x="-7.1557004e-08"
       height="32"
       width="32"
       id="rect2994"
       style="opacity:0.01;fill:#000000;fill-opacity:0.00392157;stroke:none" />
    <path
       inkscape:connector-curvature="0"
       class="ColorScheme-Text"
       id="path2996"
       d="m 424.71433,520.79075 v 9.99995 l 9.99995,10e-6 v -9.99994 z m 13.99994,2e-5 v 9.99994 l 9.99998,-10e-6 v -9.99995 z m -12.99995,0.99994 h 7.99998 v 7.99999 h -7.99998 z m 13.99996,0 h 7.99998 v 7.99999 h -7.99998 z m -14.99995,13 v 9.99998 l 9.99995,2e-5 v -9.99998 z m 13.99994,2e-5 v 9.99998 l 1.99999,-2e-5 h 5.99999 2 v -1.99998 -5.99999 -2.00001 h -2 -5.99999 z m -12.99995,0.99997 h 7.99998 v 7.99999 h -7.99998 z m 13.99996,0 h 7.99998 v 7.99999 h -7.99998 z"
       style="fill:#53b7ec;fill-opacity:1;stroke:none" />
  </g>
</svg>
