<svg xmlns:dc="http://purl.org/dc/elements/1.1/" xmlns:cc="http://creativecommons.org/ns#" xmlns:rdf="http://www.w3.org/1999/02/22-rdf-syntax-ns#" xmlns:svg="http://www.w3.org/2000/svg" xmlns="http://www.w3.org/2000/svg" xmlns:sodipodi="http://sodipodi.sourceforge.net/DTD/sodipodi-0.dtd" xmlns:inkscape="http://www.inkscape.org/namespaces/inkscape" aria-hidden="true" focusable="false" data-prefix="fas" data-icon="tools" role="img" viewBox="0 0 512 512" class="svg-inline--fa fa-tools fa-w-16 fa-9x" version="1.1" id="svg4" sodipodi:docname="yast-control-center-symbolic.svg" inkscape:version="0.92.4 (5da689c313, 2019-01-14)">
  <metadata id="metadata10" color="#53b7ec" fill="#53b7ec">
    <rdf:RDF>
      <cc:Work rdf:about="">
        <dc:format>image/svg+xml</dc:format>
        <dc:type rdf:resource="http://purl.org/dc/dcmitype/StillImage"/>
      </cc:Work>
    </rdf:RDF>
  </metadata>
  <defs id="defs8" color="#53b7ec" fill="#53b7ec"/>
  <sodipodi:namedview pagecolor="#ffffff" bordercolor="#666666" borderopacity="1" objecttolerance="10" gridtolerance="10" guidetolerance="10" inkscape:pageopacity="0" inkscape:pageshadow="2" inkscape:window-width="1920" inkscape:window-height="1051" id="namedview6" showgrid="false" inkscape:zoom="0.4609375" inkscape:cx="256" inkscape:cy="256" inkscape:window-x="0" inkscape:window-y="0" inkscape:window-maximized="1" inkscape:current-layer="svg4" color="#53b7ec" fill="#53b7ec"/>
  <path d="M 472.78785,380.7943 370.5724,278.57886 C 350.40864,258.4151 320.29393,254.48709 296.02758,266.44569 l -93.0501,-93.0501 V 119.18911 L 91.247541,35.391652 35.382564,91.25663 119.18002,202.98657 h 54.20648 l 93.0501,93.0501 c -11.87131,24.26634 -8.03059,54.38106 12.13317,74.54482 l 102.21544,102.21544 c 12.7442,12.7442 33.34441,12.7442 46.00132,0 l 46.00132,-46.00131 c 12.6569,-12.7442 12.6569,-33.3444 0,-46.00132 z M 324.92024,231.79195 c 24.7028,0 47.92168,9.60179 65.37948,27.05959 l 16.93407,16.93407 c 13.79167,-6.02294 26.88501,-14.40268 38.23259,-25.75026 32.38423,-32.38423 43.38264,-77.9491 33.08254,-119.32409 -1.92035,-7.85601 -11.78402,-10.56197 -17.54509,-4.80089 l -64.94304,64.94302 -59.26924,-9.86365 -9.86366,-59.26925 64.94303,-64.943028 c 5.76108,-5.761075 2.96783,-15.624734 -4.97548,-17.632381 -41.37499,-10.212816 -86.93986,0.785601 -119.2368,33.082538 -24.87737,24.877371 -36.5741,57.698041 -35.96307,90.431421 l 71.66428,71.66429 c 7.07042,-1.65849 14.4027,-2.53138 21.56039,-2.53138 z M 234.22695,303.36894 184.73407,253.87607 51.705612,386.99183 c -21.822256,21.82225 -21.822256,57.1743 0,78.99655 21.822255,21.82227 57.174308,21.82227 78.996558,0 L 238.5914,358.09916 c -6.63396,-17.37052 -8.64162,-36.31223 -4.36445,-54.73022 z M 91.247541,447.39583 c -11.522154,0 -20.949368,-9.42722 -20.949368,-20.94937 0,-11.60944 9.339925,-20.94936 20.949368,-20.94936 11.609439,0 20.949359,9.33992 20.949359,20.94936 0,11.52215 -9.33992,20.94937 -20.949359,20.94937 z" class="" id="path2" inkscape:connector-curvature="0" style="color:#53b7ec;fill:#53b7ec;stroke-width:0.87289017"/>
</svg>