<?xml version="1.0" encoding="UTF-8" standalone="no"?>
<svg
   xmlns:dc="http://purl.org/dc/elements/1.1/"
   xmlns:cc="http://creativecommons.org/ns#"
   xmlns:rdf="http://www.w3.org/1999/02/22-rdf-syntax-ns#"
   xmlns:svg="http://www.w3.org/2000/svg"
   xmlns="http://www.w3.org/2000/svg"
   xmlns:sodipodi="http://sodipodi.sourceforge.net/DTD/sodipodi-0.dtd"
   xmlns:inkscape="http://www.inkscape.org/namespaces/inkscape"
   inkscape:version="0.92.4 (5da689c313, 2019-01-14)"
   sodipodi:docname="blueman-active-symbolic.svg"
   id="svg4"
   version="1.1"
   height="16"
   width="16">
  <metadata
     id="metadata10">
    <rdf:RDF>
      <cc:Work
         rdf:about="">
        <dc:format>image/svg+xml</dc:format>
        <dc:type
           rdf:resource="http://purl.org/dc/dcmitype/StillImage" />
        <dc:title />
      </cc:Work>
    </rdf:RDF>
  </metadata>
  <defs
     id="defs8" />
  <sodipodi:namedview
     inkscape:document-rotation="0"
     inkscape:current-layer="svg4"
     inkscape:window-maximized="0"
     inkscape:window-y="280"
     inkscape:window-x="831"
     inkscape:cy="6.443158"
     inkscape:cx="2.7701518"
     inkscape:zoom="29.5"
     showgrid="false"
     id="namedview6"
     inkscape:window-height="1017"
     inkscape:window-width="1596"
     inkscape:pageshadow="2"
     inkscape:pageopacity="0"
     guidetolerance="10"
     gridtolerance="10"
     objecttolerance="10"
     borderopacity="1"
     bordercolor="#666666"
     pagecolor="#ffffff" />
  <ellipse
     ry="7.2881355"
     rx="4.7796612"
     cy="7.9661021"
     cx="7.6949148"
     id="path50"
     style="fill:#008080;stroke-width:0.95650077;fill-opacity:1" />
  <path
     id="path2"
     fill="#53b7ec"
     color="#53b7ec"
     d="M 7.5,0 C 4.45,0 2,2.68 2,6 V 10 C 2,13.32 4.45,16 7.5,16 10.55,16 13,13.32 13,10 V 6 C 13,2.68 10.55,0 7.5,0 Z M 7,2 H 7.5 C 7.71,2 7.8485,2.1585 8,2.31 L 11.25,5.53 8.25,8 11.25,10.47 8,13.69 C 7.8516,13.838 7.7109,14 7.5,14 H 7 V 9.06 L 4.84,10.84 C 4.75,10.93 4.64,11 4.5,11 H 4 V 10.5 C 4,10.35 4.08,10.22 4.19,10.13 L 6.75,8 4.19,5.88 C 4.08,5.78 4,5.65 4,5.5 V 5 H 4.5 C 4.62,5 4.73,5.05 4.81,5.13 4.82,5.13 7,6.94 7,6.94 Z M 8,3.69 V 6.94 L 9.78,5.47 Z M 8,9.06 V 12.31 L 9.78,10.53 Z"
     style="" />
</svg>
