<svg xmlns:dc="http://purl.org/dc/elements/1.1/" xmlns:cc="http://creativecommons.org/ns#" xmlns:rdf="http://www.w3.org/1999/02/22-rdf-syntax-ns#" xmlns:svg="http://www.w3.org/2000/svg" xmlns="http://www.w3.org/2000/svg" xmlns:sodipodi="http://sodipodi.sourceforge.net/DTD/sodipodi-0.dtd" xmlns:inkscape="http://www.inkscape.org/namespaces/inkscape" width="16" height="16" version="1.1" id="svg12" sodipodi:docname="folder-remote-symbolic.svg" inkscape:version="0.92.4 (5da689c313, 2019-01-14)">
  <metadata id="metadata18" color="#53b7ec" fill="#53b7ec" style="">
    <rdf:RDF>
      <cc:Work rdf:about="">
        <dc:format>image/svg+xml</dc:format>
        <dc:type rdf:resource="http://purl.org/dc/dcmitype/StillImage"/>
      </cc:Work>
    </rdf:RDF>
  </metadata>
  <defs id="defs16" color="#53b7ec" fill="#53b7ec" style=""/>
  <sodipodi:namedview pagecolor="#ffffff" bordercolor="#666666" borderopacity="1" objecttolerance="10" gridtolerance="10" guidetolerance="10" inkscape:pageopacity="0" inkscape:pageshadow="2" inkscape:window-width="2560" inkscape:window-height="1411" id="namedview14" showgrid="false" inkscape:zoom="25.465441" inkscape:cx="14.277262" inkscape:cy="2.2156597" inkscape:window-x="0" inkscape:window-y="0" inkscape:window-maximized="1" inkscape:current-layer="svg12" color="#53b7ec" fill="#53b7ec" style=""/>
  <path style="" inkscape:connector-curvature="0" id="path6" d="m 5,6 h 9 v 5 H 5 Z m 8,-3 h 1 v 1 h -1 z m 1,2 h 1 V 6 H 14 Z M 4,5 H 5 V 6 H 4 Z m -2.5,9 h 13 c 0.277,0 0.5,0.223 0.5,0.5 v 1 C 15,15.777 14.777,16 14.5,16 H 1.5 A 0.499,0.499 0 0 1 1,15.5 v -1 C 1,14.223 1.223,14 1.5,14 Z" color="#53b7ec" fill="#53b7ec"/>
  <path style="" inkscape:connector-curvature="0" id="path8" d="m 7,11 h 2 v 4 H 7 Z" color="#53b7ec" fill="#53b7ec"/>
  <rect style="" id="rect30" width="14.101695" height="11.525424" x="1.1525424" y="0.06779661" color="#53b7ec" fill="#53b7ec"/>
  <path inkscape:connector-curvature="0" style="" d="m 2.1811692,0.59271596 v 1.00000004 3.0000004 1 5.9999996 1 H 14.181169 v -1 -6.9999996 -1 V 2.592716 H 9.1889812 l -2,-2.00000004 -0.0078,0.0078 v -0.0078 h -4 z m 1,1.00000004 h 3.591797 l 1.001953,1 h -0.59375 v 0.0078 l -0.0078,-0.0078 -2,2.0000004 h -1.99219 z m 0,4.0000004 H 13.181169 V 11.592716 H 3.1811692 Z" id="rect4079" color="#53b7ec" fill="#53b7ec"/>
</svg>