<svg xmlns="http://www.w3.org/2000/svg" xmlns:xlink="http://www.w3.org/1999/xlink" height="32" width="32"><linearGradient id="a" gradientUnits="userSpaceOnUse" x1="27.85068" x2="3.73486" y1="31.93095" y2=".074211" color="#53b7ec" fill="#53b7ec" style=""><stop offset="0" stop-color="#18a303"/><stop offset="1" stop-color="#43c330"/></linearGradient><linearGradient id="b" gradientTransform="translate(-170 -96)" gradientUnits="userSpaceOnUse" x1="197.85068" x2="173.73486" xlink:href="#c" y1="127.93095" y2="96.074211" color="#53b7ec" fill="#53b7ec" style=""/><linearGradient id="c" gradientTransform="translate(0 20)" gradientUnits="userSpaceOnUse" x1="129" x2="103" y1="56" y2="24" color="#53b7ec" fill="#53b7ec" style=""><stop offset="0" stop-color="#535353"/><stop offset="1" stop-color="#7e7e7e"/></linearGradient><linearGradient id="d" gradientTransform="matrix(1.99993 0 0 1.9994499 -217.9916 -1950.1968)" gradientUnits="userSpaceOnUse" x1="124.00028" x2="110.99982" xlink:href="#c" y1="992.37128" y2="976.36688" color="#53b7ec" fill="#53b7ec" style=""/><linearGradient id="e" gradientTransform="translate(-170 -96.00005)" gradientUnits="userSpaceOnUse" x1="198" x2="174" xlink:href="#c" y1="128" y2="96" color="#53b7ec" fill="#53b7ec" style=""/><path d="m5.6252743.009716c-.91677.174932-1.64144 1.065106-1.625 1.998044v27.99219c.0001 1.04688.95288 1.9999 2 2h19.9999997c1.04712-.0001 1.9999-.95312 2-2v-17.45508c.012-.52797-.19501-1.05609-.5625-1.43554l-10.54102-10.537114c-.37954-.367299-.90939-.574736-1.4375-.5625h-9.4589797c-.1246-.012-.25036-.012-.375 0z" fill="#53b7ec" color="#53b7ec" style=""/><path d="m20.658474.015616c-.66561.213198-.89009 1.226608-.37695 1.703125l6.02539 6.054689c.55648.53041 1.66404.077 1.69336-.69336v-6.054688c-.00006-.528417-.47824-1.009706-1.00391-1.009766h-6.02343c-.1038-.01599-.21072-.01599-.31446 0z" fill="#53b7ec" color="#53b7ec" style=""/><path d="m6.0002743 1.99995v28h19.9999997v-17.5l-10.5-10.5z" fill="#53b7ec" color="#53b7ec" style=""/><path d="m9.4989043 20.50002h2.9999997v-6h7v6h3l-6.5 6z" fill="#53b7ec" stroke="url(#b)" stroke-linejoin="round" color="#53b7ec" style=""/></svg>